<svg viewBox="0 0 36 41" xmlns="http://www.w3.org/2000/svg"><defs><linearGradient id="zopdev-gradient" x1="0" x2="1" y1="0.795" y2="0.205"><stop offset="0" stop-color="rgb(0, 184, 215)"/><stop offset="1" stop-color="rgb(0, 147, 180)"/></linearGradient></defs><path d="M 14.99 0.775 C 16.748 -0.258 18.914 -0.258 20.67 0.775 L 32.819 7.922 C 34.577 8.955 35.66 10.867 35.66 12.933 L 35.66 27.225 C 35.66 29.291 34.577 31.202 32.819 32.236 L 20.67 39.382 C 18.913 40.416 16.746 40.416 14.99 39.382 L 2.841 32.236 C 1.083 31.202 0 29.291 0 27.225 L 0 12.933 C 0 10.867 1.083 8.955 2.841 7.922 Z" fill="url(#zopdev-gradient)"/><path d="M 6.67 21.559 L 7.003 22.137 L 2.629 24.716 C 1.462 25.404 0 24.549 0 23.174 L 0 8.436 C 0 7.799 0.336 7.211 0.878 6.894 L 12.239 0.24 C 13.406 -0.443 14.864 0.412 14.864 1.782 L 14.864 6.291 L 14.202 6.291 L 14.202 1.782 C 14.202 0.928 13.297 0.392 12.569 0.816 L 1.211 7.47 C 0.873 7.669 0.665 8.037 0.665 8.436 L 0.665 23.174 C 0.665 24.028 1.573 24.564 2.299 24.137 L 6.673 21.558 L 6.67 21.561 Z" fill="rgb(138, 245, 253)" transform="translate(4.008 3.797)"/><path d="M 0 23.182 L 0 8.436 C 0 7.799 0.336 7.211 0.878 6.894 L 12.239 0.24 C 13.406 -0.443 14.864 0.412 14.864 1.782 L 14.864 16.528 C 14.864 17.165 14.527 17.753 13.986 18.07 L 2.628 24.724 C 1.461 25.407 0.003 24.552 0.003 23.182 Z M 0.665 23.182 C 0.665 24.036 1.57 24.572 2.298 24.144 L 13.656 17.491 C 13.994 17.292 14.202 16.924 14.202 16.528 L 14.202 1.784 C 14.202 0.93 13.297 0.393 12.573 0.821 L 1.211 7.475 C 0.873 7.674 0.665 8.042 0.665 8.438 Z" fill="rgb(0, 235, 251)" transform="translate(10.398 7.058)"/><path d="M 0 22.849 L 0 8.103 C 0 7.585 0.272 7.107 0.712 6.848 L 12.07 0.194 C 13.016 -0.36 14.199 0.337 14.199 1.448 L 14.199 16.193 C 14.199 16.711 13.927 17.189 13.487 17.446 L 2.129 24.1 C 1.183 24.654 0 23.958 0 22.847 L 0 22.85 Z" fill="rgb(255, 255, 255)" transform="translate(17.122 11.728)"/><path d="M 2.081 10.378 C 1.568 10.731 1.044 10.82 0.636 10.561 C -0.167 10.05 -0.215 8.383 0.523 6.838 C 0.952 5.941 1.555 5.28 2.14 4.988 C 1.906 4.226 2.039 3.094 2.552 2.023 C 3.292 0.478 4.54 -0.361 5.344 0.149 C 5.686 0.367 5.89 0.795 5.956 1.333 C 6.536 0.845 7.153 0.687 7.619 0.984 C 7.864 1.139 8.039 1.404 8.143 1.742 C 8.609 1.467 9.073 1.417 9.443 1.653 C 10.243 2.165 10.294 3.834 9.555 5.376 C 9.148 6.227 8.585 6.863 8.03 7.179 L 2.076 10.391 L 2.076 10.381 Z" fill="rgb(0, 147, 180)" transform="translate(19.478 19.765)"/></svg>