<svg display="block" role="presentation" viewBox="0 0 127 41" xmlns="http://www.w3.org/2000/svg"><defs ><linearGradient id="gNITyTjND-1081563255-linear-gradient" x1="0" x2="1" y1="0.7952539140917128" y2="0.20474608590828725"><stop offset="0" stop-color="rgb(0, 184, 215)"/><stop offset="1" stop-color="rgb(0, 147, 180)"/></linearGradient></defs><path d="M 14.99 0.775 C 16.748 -0.258 18.914 -0.258 20.67 0.775 L 32.819 7.922 C 34.577 8.955 35.66 10.867 35.66 12.933 L 35.66 27.225 C 35.66 29.291 34.577 31.202 32.819 32.236 L 20.67 39.382 C 18.913 40.416 16.746 40.416 14.99 39.382 L 2.841 32.236 C 1.083 31.202 0 29.291 0 27.225 L 0 12.933 C 0 10.867 1.083 8.955 2.841 7.922 Z" fill="url(#gNITyTjND-1081563255-linear-gradient)" height="40.1577805px" id="gNITyTjND" transform="translate(0 0)" width="35.6602px"/><path d="M 6.67 21.559 L 7.003 22.137 L 2.629 24.716 C 1.462 25.404 0 24.549 0 23.174 L 0 8.436 C 0 7.799 0.336 7.211 0.878 6.894 L 12.239 0.24 C 13.406 -0.443 14.864 0.412 14.864 1.782 L 14.864 6.291 L 14.202 6.291 L 14.202 1.782 C 14.202 0.928 13.297 0.392 12.569 0.816 L 1.211 7.47 C 0.873 7.669 0.665 8.037 0.665 8.436 L 0.665 23.174 C 0.665 24.028 1.573 24.564 2.299 24.137 L 6.673 21.558 L 6.67 21.561 Z" fill="rgb(138, 245, 253)" height="24.958708774679px" id="HYgTj_sKk" transform="translate(4.008 3.797)" width="14.863790000000002px"/><path d="M 0 23.182 L 0 8.436 C 0 7.799 0.336 7.211 0.878 6.894 L 12.239 0.24 C 13.406 -0.443 14.864 0.412 14.864 1.782 L 14.864 16.528 C 14.864 17.165 14.527 17.753 13.986 18.07 L 2.628 24.724 C 1.461 25.407 0.003 24.552 0.003 23.182 Z M 0.665 23.182 C 0.665 24.036 1.57 24.572 2.298 24.144 L 13.656 17.491 C 13.994 17.292 14.202 16.924 14.202 16.528 L 14.202 1.784 C 14.202 0.93 13.297 0.393 12.573 0.821 L 1.211 7.475 C 0.873 7.674 0.665 8.042 0.665 8.438 Z" fill="rgb(0, 235, 251)" height="24.963977906023395px" id="phl63QabE" transform="translate(10.398 7.058)" width="14.8638px"/><path d="M 0 22.849 L 0 8.103 C 0 7.585 0.272 7.107 0.712 6.848 L 12.07 0.194 C 13.016 -0.36 14.199 0.337 14.199 1.448 L 14.199 16.193 C 14.199 16.711 13.927 17.189 13.487 17.446 L 2.129 24.1 C 1.183 24.654 0 23.958 0 22.847 L 0 22.85 Z" fill="rgb(255, 255, 255)" height="24.294536336654673px" id="fdnBpIoHM" transform="translate(17.122 11.728)" width="14.198999999999998px"/><path d="M 2.081 10.378 C 1.568 10.731 1.044 10.82 0.636 10.561 C -0.167 10.05 -0.215 8.383 0.523 6.838 C 0.952 5.941 1.555 5.28 2.14 4.988 C 1.906 4.226 2.039 3.094 2.552 2.023 C 3.292 0.478 4.54 -0.361 5.344 0.149 C 5.686 0.367 5.89 0.795 5.956 1.333 C 6.536 0.845 7.153 0.687 7.619 0.984 C 7.864 1.139 8.039 1.404 8.143 1.742 C 8.609 1.467 9.073 1.417 9.443 1.653 C 10.243 2.165 10.294 3.834 9.555 5.376 C 9.148 6.227 8.585 6.863 8.03 7.179 L 2.076 10.391 L 2.076 10.381 Z" fill="rgb(0, 147, 180)" height="10.710284372505601px" id="foq_VHCKo" transform="translate(19.478 19.765)" width="10.077885448503235px"/><path d="M 0 15.661 L 0 13.811 L 6.741 4.414 C 7.112 3.909 7.51 3.403 7.935 2.89 C 8.36 2.378 8.788 1.867 9.223 1.356 L 9.476 2.281 C 8.803 2.323 8.131 2.348 7.456 2.36 C 6.784 2.371 6.111 2.375 5.438 2.375 L 0.022 2.375 L 0.022 0 L 11.695 0 L 11.695 1.861 L 5.07 11.1 C 4.677 11.632 4.26 12.167 3.818 12.703 C 3.376 13.24 2.928 13.773 2.473 14.305 L 2.22 13.38 C 2.907 13.338 3.594 13.313 4.281 13.301 C 4.968 13.29 5.655 13.286 6.342 13.286 L 11.747 13.286 L 11.747 15.661 L 0.002 15.661 Z" fill="rgb(9, 145, 177)" height="15.661px" id="rVJWKvklU" transform="translate(43.274 12.296)" width="11.746700000000004px"/><path d="M 5.584 12.012 C 4.455 12.012 3.471 11.761 2.634 11.261 C 1.797 10.76 1.148 10.06 0.688 9.159 C 0.229 8.259 0 7.209 0 6.011 C 0 4.814 0.229 3.762 0.688 2.858 C 1.148 1.954 1.795 1.252 2.634 0.751 C 3.472 0.251 4.455 0 5.584 0 C 6.713 0 7.706 0.251 8.544 0.751 C 9.383 1.252 10.03 1.954 10.49 2.858 C 10.949 3.762 11.178 4.814 11.178 6.011 C 11.178 7.209 10.948 8.259 10.49 9.159 C 10.03 10.058 9.381 10.759 8.544 11.261 C 7.707 11.761 6.721 12.012 5.584 12.012 Z M 5.584 9.795 C 6.207 9.795 6.73 9.629 7.15 9.296 C 7.57 8.963 7.887 8.512 8.102 7.94 C 8.317 7.369 8.423 6.727 8.423 6.012 C 8.423 5.297 8.315 4.632 8.102 4.062 C 7.889 3.491 7.572 3.041 7.15 2.711 C 6.728 2.382 6.207 2.217 5.584 2.217 C 4.96 2.217 4.448 2.382 4.028 2.711 C 3.608 3.041 3.292 3.491 3.082 4.062 C 2.872 4.634 2.767 5.284 2.767 6.012 C 2.767 6.739 2.872 7.369 3.082 7.94 C 3.292 8.512 3.608 8.963 4.028 9.296 C 4.448 9.629 4.968 9.795 5.584 9.795 Z" fill="rgb(9, 145, 177)" height="12.011999999999997px" id="iNaaHzcVu" transform="translate(56.966 16.187)" width="11.178299999999993px"/><path d="M 0.002 16.165 L 0.002 0.167 L 2.662 0.167 L 2.662 2.028 L 2.809 2.028 C 2.97 1.72 3.19 1.409 3.466 1.099 C 3.742 0.786 4.101 0.526 4.538 0.316 C 4.976 0.106 5.522 0 6.174 0 C 7.093 0 7.914 0.235 8.641 0.704 C 9.367 1.173 9.94 1.853 10.365 2.743 C 10.79 3.633 11.001 4.716 11.001 5.991 C 11.001 7.266 10.794 8.319 10.381 9.212 C 9.967 10.106 9.395 10.792 8.666 11.272 C 7.936 11.752 7.103 11.992 6.163 11.992 C 5.531 11.992 4.998 11.886 4.559 11.676 C 4.121 11.466 3.761 11.206 3.48 10.893 C 3.199 10.581 2.98 10.268 2.819 9.953 L 2.713 9.953 L 2.713 16.165 L 0 16.165 Z M 5.448 9.743 C 6.043 9.743 6.548 9.583 6.962 9.264 C 7.376 8.946 7.692 8.502 7.908 7.935 C 8.124 7.369 8.235 6.715 8.235 5.98 C 8.235 5.245 8.127 4.586 7.914 4.025 C 7.701 3.464 7.387 3.025 6.973 2.711 C 6.559 2.396 6.051 2.238 5.448 2.238 C 4.845 2.238 4.346 2.393 3.929 2.7 C 3.512 3.008 3.193 3.444 2.972 4.004 C 2.751 4.564 2.64 5.224 2.64 5.98 C 2.64 6.736 2.751 7.386 2.972 7.951 C 3.193 8.516 3.513 8.955 3.933 9.271 C 4.353 9.586 4.859 9.744 5.448 9.744 Z" fill="rgb(9, 145, 177)" height="16.1645px" id="BK4Uok2V9" transform="translate(70.404 16.185)" width="11.00139999999999px"/><path d="M 1.388 2.797 C 1.003 2.797 0.674 2.659 0.404 2.386 C 0.134 2.113 0 1.783 0 1.398 C 0 1.013 0.134 0.683 0.404 0.41 C 0.674 0.137 1.001 0 1.388 0 C 1.775 0 2.111 0.136 2.381 0.41 C 2.651 0.683 2.785 1.013 2.785 1.398 C 2.785 1.783 2.651 2.113 2.381 2.386 C 2.111 2.659 1.78 2.797 1.388 2.797 Z" fill="rgb(40, 40, 40)" height="2.7966999999999977px" id="clgkE7QFR" transform="translate(83.823 25.308)" width="2.785499999999999px"/><path d="M 1.472 0 L 1.472 15.659 L 0 15.659 L 0 0 Z M 4.616 15.661 L 0.808 15.661 L 0.808 14.337 L 4.53 14.337 C 5.869 14.337 6.987 14.076 7.884 13.554 C 8.781 13.032 9.457 12.28 9.908 11.3 C 10.36 10.319 10.586 9.149 10.586 7.79 C 10.586 6.431 10.365 5.29 9.924 4.328 C 9.482 3.365 8.832 2.623 7.974 2.105 C 7.115 1.588 6.056 1.327 4.794 1.327 L 0.756 1.327 L 0.756 0.003 L 4.889 0.003 C 6.383 0.003 7.662 0.316 8.727 0.939 C 9.793 1.562 10.61 2.456 11.178 3.619 C 11.745 4.782 12.029 6.172 12.029 7.792 C 12.029 9.411 11.74 10.849 11.162 12.021 C 10.584 13.194 9.743 14.095 8.639 14.722 C 7.535 15.348 6.195 15.663 4.617 15.663 Z" fill="rgb(40, 40, 40)" height="15.662599999919161px" id="zH90VK_0J" transform="translate(90.133 12.296)" width="12.029199989128116px"/><path d="M 5.31 12.015 C 4.224 12.015 3.282 11.761 2.487 11.253 C 1.691 10.745 1.078 10.041 0.647 9.14 C 0.216 8.238 0 7.205 0 6.034 C 0 4.863 0.216 3.815 0.647 2.907 C 1.078 2 1.68 1.288 2.45 0.773 C 3.221 0.259 4.108 0 5.111 0 C 5.784 0 6.42 0.121 7.02 0.363 C 7.62 0.604 8.152 0.969 8.618 1.457 C 9.084 1.944 9.45 2.55 9.717 3.275 C 9.984 3.999 10.117 4.847 10.117 5.813 L 10.117 6.381 L 0.895 6.381 L 0.895 5.161 L 9.349 5.161 L 8.708 5.612 C 8.708 4.771 8.563 4.023 8.272 3.368 C 7.982 2.713 7.568 2.198 7.031 1.823 C 6.494 1.449 5.855 1.261 5.113 1.261 C 4.37 1.261 3.731 1.454 3.178 1.839 C 2.624 2.224 2.193 2.737 1.885 3.379 C 1.577 4.02 1.422 4.733 1.422 5.518 L 1.422 6.201 C 1.422 7.112 1.58 7.907 1.896 8.587 C 2.212 9.267 2.662 9.796 3.248 10.173 C 3.834 10.552 4.522 10.742 5.315 10.742 C 5.869 10.742 6.357 10.653 6.782 10.478 C 7.206 10.303 7.563 10.063 7.854 9.758 C 8.144 9.454 8.361 9.116 8.501 8.743 L 9.858 9.08 C 9.682 9.611 9.389 10.102 8.975 10.551 C 8.561 10.999 8.045 11.354 7.424 11.617 C 6.804 11.881 6.101 12.012 5.316 12.012 Z" fill="rgb(40, 40, 40)" height="12.015199999999997px" id="Cs5_UbO4y" transform="translate(104.517 16.184)" width="10.117000000000004px"/><path d="M 4.469 11.603 L 0 0 L 1.524 0 L 4.227 7.252 C 4.466 7.883 4.679 8.513 4.869 9.144 C 5.058 9.774 5.254 10.391 5.458 10.994 L 4.995 10.994 C 5.199 10.391 5.394 9.774 5.584 9.144 C 5.773 8.513 5.987 7.883 6.225 7.252 L 8.917 0 L 10.443 0 L 5.974 11.603 L 4.471 11.603 Z" fill="rgb(40, 40, 40)" height="11.6033px" id="VMZ5l2suS" transform="translate(115.884 16.354)" width="10.442999999999998px"/></svg>